<svg xmlns="http://www.w3.org/2000/svg" width="161.98" height="24.39" viewBox="0 0 42.86 6.45"><g aria-label="BloomBus" style="line-height:1.25;-inkscape-font-specification:'Product Sans'" font-weight="700" font-size="7.06" font-family="Product Sans" letter-spacing="0" word-spacing="0" fill="#343434" stroke-width=".26"><path d="M0 .7h1.98q.32 0 .6.1.28.1.49.28.21.18.33.42.12.24.12.52 0 .4-.2.67-.19.27-.48.41v.06q.4.14.62.44.24.3.24.75 0 .32-.13.58-.13.26-.35.44-.23.18-.53.28-.3.1-.64.1H0zm1.9 2.06q.34 0 .51-.18.19-.18.19-.43t-.18-.42q-.18-.18-.49-.18H.95v1.2zm.11 2.11q.36 0 .55-.17.2-.19.2-.47 0-.28-.2-.46-.2-.2-.58-.2H.95v1.3zM4.33 5.75V.7h.92v5.05zM7.63 2.18q.4 0 .74.14.33.13.57.38.25.24.39.58.14.34.14.74 0 .4-.14.74-.14.34-.39.59-.24.24-.57.38-.34.13-.74.13-.4 0-.74-.13-.33-.14-.58-.38-.24-.25-.38-.59-.13-.34-.13-.74 0-.4.13-.74.14-.34.38-.58.25-.25.58-.38.34-.14.74-.14zm0 2.83q.18 0 .34-.06.17-.08.3-.2.12-.13.2-.31.07-.19.07-.42 0-.23-.08-.42-.07-.18-.2-.3-.12-.13-.29-.2-.16-.07-.34-.07-.18 0-.34.07-.17.07-.3.2-.12.12-.2.3-.07.19-.07.42 0 .23.07.42.08.18.2.3.13.13.3.2.16.07.34.07zM11.7 2.18q.4 0 .73.14.34.13.58.38.25.24.38.58.15.34.15.74 0 .4-.15.74-.13.34-.38.59-.24.24-.58.38-.33.13-.73.13-.4 0-.74-.13-.33-.14-.58-.38-.24-.25-.38-.59-.14-.34-.14-.74 0-.4.14-.74.14-.34.38-.58.25-.25.58-.38.34-.14.74-.14zm0 2.83q.18 0 .34-.06.17-.08.3-.2.12-.13.2-.31.07-.19.07-.42 0-.23-.08-.42-.07-.18-.2-.3-.12-.13-.3-.2-.15-.07-.33-.07-.18 0-.35.07-.16.07-.29.2-.12.12-.2.3-.07.19-.07.42 0 .23.07.42.08.18.2.3.13.13.3.2.16.07.34.07zM14.06 2.3h.87v.44h.06q.16-.25.43-.4.29-.16.62-.16.4 0 .67.18t.38.45q.16-.26.46-.44.3-.2.72-.2.32 0 .55.11.23.1.38.29.16.18.23.44.08.25.08.56v2.18h-.92V3.74q0-.7-.58-.7-.19 0-.33.08-.14.07-.24.22-.09.13-.15.32-.05.2-.05.41v1.68h-.92V3.74q0-.7-.6-.7-.18 0-.32.08-.13.07-.22.22-.1.13-.15.32-.04.2-.04.41v1.68h-.93zM20.4.7h1.97q.32 0 .6.1.29.1.5.28.2.18.33.42.12.24.12.52 0 .4-.2.67t-.48.41v.06q.39.14.62.44.24.3.24.75 0 .32-.14.58-.12.26-.35.44-.22.18-.53.28-.3.1-.64.1h-2.05zm1.9 2.06q.33 0 .5-.18.19-.18.19-.43t-.18-.42q-.17-.18-.48-.18h-.98v1.2zm.1 2.11q.36 0 .56-.17.19-.19.19-.47 0-.28-.2-.46-.2-.2-.57-.2h-1.03v1.3zM27.11 5.3h-.05q-.17.26-.44.41-.28.15-.63.15-.66 0-.98-.4-.32-.4-.32-1.07v-2.1h.93v1.98q0 .38.16.56.17.18.49.18.19 0 .33-.08.15-.08.24-.22.11-.14.16-.32.06-.2.06-.4v-1.7h.92v3.46h-.87zM30.1 5.86q-.34 0-.6-.08-.27-.09-.46-.22-.2-.14-.33-.32t-.2-.37l.82-.35q.12.27.32.4t.45.13q.26 0 .4-.1.15-.08.15-.21 0-.14-.12-.23t-.43-.16l-.49-.1q-.16-.04-.33-.12-.17-.07-.31-.2-.15-.11-.24-.28-.09-.17-.09-.4 0-.25.1-.45.12-.2.31-.33.19-.14.44-.21.27-.08.56-.08.5 0 .88.2.4.19.58.61l-.8.32q-.1-.2-.3-.3-.18-.08-.37-.08-.2 0-.35.08-.15.08-.15.2 0 .13.12.2.13.07.34.12l.53.13q.53.13.79.41.26.28.26.66 0 .22-.1.43-.11.2-.31.36-.2.16-.47.25-.27.1-.6.1z" style="-inkscape-font-specification:'Product Sans Bold'"/></g><path d="M34.47 0c-.62 0-1.11.54-1.11 1.11V5c0 .28.24.55.54.55h.43a1.14 1.14 0 0 0 2.23 0h3.1a1.14 1.14 0 0 0 2.22 0h.08c.43 0 .9-.27.9-.82V3.2a1.98 1.98 0 0 0-.11-.6l-.6-1.57C41.82.27 41.39 0 40.52 0zm.27.98h1.22c.25 0 .44.19.44.43v.82c0 .27-.2.46-.44.46h-1.25a.43.43 0 0 1-.4-.46V1.4c0-.27.19-.43.43-.43zm2.85 0H39c.25 0 .44.19.44.43v.82c0 .27-.2.46-.44.46h-1.4a.43.43 0 0 1-.44-.46V1.4c0-.27.19-.43.43-.43zm3.04 0h1.09a42.48 42.48 0 0 1 .67 1.7h-1.76a.43.43 0 0 1-.43-.45V1.4c0-.27.19-.43.43-.43zm-5.18 3.6c.4 0 .76.33.76.77l-.03.19a.76.76 0 0 1-1.5-.2c0-.43.36-.75.76-.75zm5.32 0c.4 0 .76.33.76.77l-.03.19a.76.76 0 0 1-1.5-.2c0-.43.36-.75.76-.75z" fill="#33a3f4"/></svg>