<?xml version="1.0" encoding="UTF-8" standalone="no"?>
<svg
   xmlns:dc="http://purl.org/dc/elements/1.1/"
   xmlns:cc="http://creativecommons.org/ns#"
   xmlns:rdf="http://www.w3.org/1999/02/22-rdf-syntax-ns#"
   xmlns:svg="http://www.w3.org/2000/svg"
   xmlns="http://www.w3.org/2000/svg"
   xmlns:sodipodi="http://sodipodi.sourceforge.net/DTD/sodipodi-0.dtd"
   xmlns:inkscape="http://www.inkscape.org/namespaces/inkscape"
   viewBox="0 0 583.19092 206.125"
   version="1.1"
   id="svg70"
   sodipodi:docname="bus-top.svg"
   width="583.19092"
   height="206.125"
   inkscape:version="0.92.2 (5c3e80d, 2017-08-06)">
  <metadata
     id="metadata76">
    <rdf:RDF>
      <cc:Work
         rdf:about="">
        <dc:format>image/svg+xml</dc:format>
        <dc:type
           rdf:resource="http://purl.org/dc/dcmitype/StillImage" />
        <dc:title></dc:title>
      </cc:Work>
    </rdf:RDF>
  </metadata>
  <defs
     id="defs74" />
  <sodipodi:namedview
     pagecolor="#ffffff"
     bordercolor="#666666"
     borderopacity="1"
     objecttolerance="10"
     gridtolerance="10"
     guidetolerance="10"
     inkscape:pageopacity="0"
     inkscape:pageshadow="2"
     inkscape:window-width="3440"
     inkscape:window-height="1361"
     id="namedview72"
     showgrid="false"
     fit-margin-top="0"
     fit-margin-left="0"
     fit-margin-right="0"
     fit-margin-bottom="0"
     inkscape:zoom="2.5173333"
     inkscape:cx="396.52627"
     inkscape:cy="146.73722"
     inkscape:window-x="-9"
     inkscape:window-y="-9"
     inkscape:window-maximized="1"
     inkscape:current-layer="svg70" />
  <g
     inkscape:label="g6"
     id="g6"
     style="fill:#8d8f93;fill-rule:evenodd"
     transform="matrix(1.25,0,0,-1.25,-320.46354,495)">
    <path
       d="m 624.5,246 -53.1,2.8 c -6.8,0.4 -10.6,2 -11,3.4 l -1.2,4.4 c -0.2,1 3,1.6 8,1.6 h 10.3 a 193,193 0 0 0 26.8,-1.4 l 21.1,-3.2 c 4.6,-0.7 7.9,-1.7 7.8,-2.8 V 247 c 0,-0.7 -4.8,-1.2 -8.7,-1"
       id="path4"
       inkscape:connector-curvature="0" />
    <path
       d="m 260,369.8 c -3,-12 -3.8,-34 -3.8,-56.2 0,-22.1 0.8,-44.3 3.7,-56.2 2.2,-9.3 10.7,-13.7 23,-13.4 h 363.2 c 16.4,-0.2 31.9,-0.2 39.1,1 16,2.5 27.2,7.1 29.6,14.8 4.7,14 7,33.9 7,53.8 0,19.9 -2.2,39.8 -7,53.9 -2.4,7.6 -13.6,12.2 -29.6,14.7 -7.2,1.2 -22.7,1.2 -39.1,1 H 282.9 c -12.3,0.3 -20.8,-4 -23,-13.4"
       id="path2"
       inkscape:connector-curvature="0" />
  </g>
  <path
     inkscape:connector-curvature="0"
     id="path8"
     d="m 430.53646,174 5,11.625 -41.75,-2.125 c -2.875,-0.125 -5.875,-0.625 -8.75,-1.25 -5,-1.375 -4.625,-2.625 -6,-8.125 0,-1 7.5,-1.375 8.375,-1.375 14.375,0 28.75,-0.25 43.125,1.25 m 9.625,11.875 -4.75,-11.25 c 11,1.625 22.25,2.5 32.875,5.375 3.375,1.125 2.375,2.25 2.25,6 -0.875,1 -8.25,1 -9.375,1 l -21,-1.125"
     style="fill:#d2d2d1;fill-rule:evenodd;stroke-width:1.25" />
  <path
     inkscape:connector-curvature="0"
     id="path12"
     d="m 471.16146,187 c 1.375,0 2.5,0.5 4.25,2.375 2.75,2.875 1.375,4.5 0.5,7.875 -1,3.5 -0.375,3 -2.75,6.5 -1.5,2.125 -3,2.375 -5.625,2.375 -1.25,0 -2.625,-1.125 -2.5,-2.5 l 3.75,-14.25 c 0.25,-1.25 1.125,-2.5 2.5,-2.5"
     style="fill:#8d8f93;fill-rule:evenodd;stroke-width:1.25" />
  <path
     d="m 440.66146,52 c 2.5,21.625 3.875,43.625 2.875,65.375 -0.25,12.875 -1.75,26.25 -3.125,39 l -1.625,12.5 c 15.25,2 30.125,6.5 45.375,8 7,0.5 15.375,0.625 19.375,-6.125 2.5,-4.5 3.75,-11.25 5,-16.375 8,-36.25 7.5,-76.25 -2.5,-112.125 -1.25,-4.75 -2.75,-9 -7.375,-11.25 -8.5,-3.75 -21.25,-1 -30,0.75 -9.5,2.125 -19.75,4.375 -29.625,5.5 -0.25,0.875 0.25,3.25 0.375,4.25 l 1.25,10.5"
     id="path18"
     inkscape:connector-curvature="0"
     style="fill:#d2d2d1;fill-rule:evenodd;stroke-width:1.25" />
  <path
     d="m 538.28646,170 c -2,11.25 6,18.125 18.25,7.5 3.875,-3.5 11.75,-13.125 11.625,-31 -9,2.5 -28.25,14.25 -29.875,23.625"
     id="path22"
     inkscape:connector-curvature="0"
     style="fill:#e9e8e8;fill-rule:evenodd;stroke-width:1.25" />
  <path
     d="m 43.91146,46.25 c 0,-3 -0.625,-5.375 -1.375,-5.375 h -7 c -0.875,0 -4.125,3.375 -4.25,6.25 a 775,775 0 0 0 -2.75,56 c 0,16.375 1.125,32.875 2.75,56 0,2.875 3.375,6.25 4.25,6.25 h 7 c 0.75,0 1.375,-2.5 1.375,-5.375 -1.25,-19 -2.25,-37.75 -2.25,-56.875 0,-19.125 0.5,-37.875 2.25,-56.875"
     id="path24"
     inkscape:connector-curvature="0"
     style="fill:#8d8f93;fill-rule:evenodd;stroke-width:1.25" />
  <path
     d="m 35.66146,41.25 c -1.875,0.625 -3.625,4.125 -3.75,5.875 -1.125,15.875 -2.875,32.25 -2.875,48.25 -0.625,21.25 1.25,42.625 2.75,63.75 0.375,1.75 2,5.125 3.75,5.75 h 7 c 1.75,-3.5 0.625,-10 0.375,-13.75 -1,-18.25 -2.125,-36.875 -1.625,-55.125 0,-16.625 0.875,-33.25 2.25,-49.75 0,-1.625 -0.25,-3.375 -1,-5 h -6.875"
     id="path26"
     inkscape:connector-curvature="0"
     style="fill:#d2d2d1;fill-rule:evenodd;stroke-width:1.25" />
  <path
     inkscape:connector-curvature="0"
     id="path32"
     d="m 430.53646,32.125 5,-11.75 -41.75,2.25 c -2.875,0.125 -5.875,0.5 -8.75,1.25 -5,1.25 -4.625,2.625 -6,8 0,1.125 7.5,1.5 8.375,1.5 14.375,0 28.75,0.25 43.125,-1.25 m 9.625,-12 -4.75,11.25 c 11,-1.625 22.25,-2.5 32.875,-5.25 3.375,-1.125 2.375,-2.25 2.25,-6 -0.875,-1 -8.25,-1 -9.375,-1 l -21,1"
     style="fill:#d2d2d1;fill-rule:evenodd;stroke-width:1.25" />
  <path
     inkscape:connector-curvature="0"
     id="path36"
     d="m 471.28646,19.25 c 1.25,0 2.5,-0.625 4.125,-2.5 2.875,-2.875 1.375,-4.5 0.5,-7.875 -1,-3.5 -0.25,-3 -2.625,-6.5 -1.5,-2.125 -3.125,-2.375 -5.75,-2.375 -1.25,0 -2.625,1.125 -2.375,2.5 l 3.75,14.25 c 0.25,1.25 1,2.5 2.375,2.5"
     style="fill:#8d8f93;fill-rule:evenodd;stroke-width:1.25" />
  <path
     d="m 538.28646,36 c -2,-11.25 6,-18 18.25,-7.5 3.875,3.625 11.75,13.25 11.625,31.125 -9,-2.5 -28.25,-14.25 -29.875,-23.625"
     id="path42"
     inkscape:connector-curvature="0"
     style="fill:#e9e8e8;fill-rule:evenodd;stroke-width:1.25" />
  <path
     d="m 565.41146,143.75 c 1.625,-0.5 2.5,-1 3.375,-2.5 0.5,-1 1.5,-2.625 1.5,-5.375 a 189.125,189.125 0 0 0 0,-65.25 c 0,-2.75 -1,-4.375 -1.5,-5.375 a 4.5,4.5 0 0 0 -3.375,-2.5 c 3.125,13.25 4.125,26.625 4.5,39.875 0.25,13.875 -2.25,28.75 -4.5,41.25"
     id="path44"
     inkscape:connector-curvature="0"
     style="fill:#3b3b3c;fill-rule:evenodd;stroke-width:1.25" />
  <rect
     style="fill:#d2d2d1;stroke-width:1.25"
     id="rect56"
     ry="8.125"
     rx="8.125"
     height="16.25"
     width="310.625"
     y="22.000008"
     x="53.661446" />
  <path
     d="m 297.53646,27.75 v 4.75 c 0,3.25 0.25,6.125 0.5,6 h 1.75 c 0.375,0 0.5,-2.625 0.5,-6 v -5 c 0,-3.25 -0.25,-6 -0.5,-6 h -1.75 c -0.25,0 -0.5,2.75 -0.5,6.125 m 40.125,0.5 V 33 c 0,3.25 0.125,6 0.5,6 h 1.75 c 0.25,0 0.5,-2.625 0.5,-6 v -5 c 0,-3.25 -0.25,-6 -0.5,-6 h -1.875 c -0.25,0 -0.375,2.75 -0.375,6.125 m -79.25,-0.25 v 4.75 c 0,3.125 0.25,5.875 0.5,5.875 h 1.75 c 0.25,0 0.5,-2.625 0.5,-5.875 v -4.75 c 0,-3.25 -0.25,-5.875 -0.5,-5.875 h -1.75 c -0.25,0 -0.5,2.5 -0.5,5.875 m -40.75,0.125 v 4.75 c 0,3.25 0.25,5.875 0.5,5.875 h 1.75 c 0.25,0 0.5,-2.5 0.5,-5.875 V 28 c 0,-3.25 -0.25,-5.875 -0.5,-5.875 h -1.625 c -0.25,0 -0.5,2.625 -0.5,5.875 m -40,0 v 4.75 c 0,3.25 0.25,5.875 0.5,5.875 h 1.75 c 0.25,0 0.5,-2.5 0.5,-5.875 V 28 c 0,-3.25 -0.25,-5.875 -0.5,-5.875 h -1.75 c -0.25,0 -0.5,2.625 -0.5,5.875 m -40,0 v 4.75 c 0,3.25 0.25,5.875 0.5,5.875 h 1.75 c 0.25,0 0.5,-2.5 0.5,-5.875 V 28 c 0,-3.25 -0.25,-5.875 -0.5,-5.875 h -1.75 c -0.25,0 -0.5,2.625 -0.5,5.875"
     id="path58"
     inkscape:connector-curvature="0"
     style="fill:#8d8f93;fill-rule:evenodd;stroke-width:1.25" />
  <rect
     style="fill:#d2d2d1;stroke-width:1.25"
     id="rect62"
     ry="8.125"
     rx="8.125"
     height="16.25"
     width="311.75"
     y="169.00002"
     x="52.536453" />
  <path
     d="m 297.53646,174.75 v 4.875 c 0,3.25 0.25,6.125 0.5,6 h 1.75 c 0.375,0 0.5,-2.625 0.5,-6 v -5 c 0,-3.25 -0.25,-6 -0.5,-6 h -1.75 c -0.25,0 -0.5,2.75 -0.5,6.125 m 40.125,0.25 v 5 c 0,3.25 0.125,6 0.5,6 h 1.75 c 0.25,0 0.5,-2.625 0.5,-6 v -5 c 0,-3.25 -0.25,-6 -0.5,-6 h -1.875 c -0.25,0 -0.375,2.75 -0.375,6.125 m -79.25,-0.25 v 4.75 c 0,3.125 0.25,5.875 0.5,5.875 h 1.75 c 0.25,0 0.5,-2.625 0.5,-5.875 v -4.75 c 0,-3.25 -0.25,-5.875 -0.5,-5.875 h -1.75 c -0.25,0 -0.5,2.5 -0.5,5.875 m -40.75,0.125 v 4.75 c 0,3.25 0.25,5.875 0.5,5.875 h 1.75 c 0.25,0 0.5,-2.5 0.5,-5.875 V 175 c 0,-3.25 -0.25,-5.875 -0.5,-5.875 h -1.625 c -0.25,0 -0.5,2.625 -0.5,5.875 m -40,0 v 4.75 c 0,3.25 0.25,5.875 0.5,5.875 h 1.75 c 0.25,0 0.5,-2.5 0.5,-5.875 V 175 c 0,-3.25 -0.25,-5.875 -0.5,-5.875 h -1.75 c -0.25,0 -0.5,2.625 -0.5,5.875 m -40,0 v 4.75 c 0,3.25 0.25,5.875 0.5,5.875 h 1.75 c 0.25,0 0.5,-2.5 0.5,-5.875 V 175 c 0,-3.25 -0.25,-5.875 -0.5,-5.875 h -1.75 c -0.25,0 -0.5,2.625 -0.5,5.875"
     id="path64"
     inkscape:connector-curvature="0"
     style="fill:#8d8f93;fill-rule:evenodd;stroke-width:1.25" />
</svg>
