<svg xmlns="http://www.w3.org/2000/svg" viewBox="0 0 3.5 2.39"><path fill="#33A3F4" d="M.41 0C.18 0 0 .2 0 .41v1.43c0 .1.09.2.2.2h.16a.42.42 0 0 0 .82 0h1.14a.42.42 0 0 0 .82 0h.03c.16 0 .33-.1.33-.3v-.56a.73.73 0 0 0-.04-.22L3.24.38C3.12.1 2.96 0 2.64 0zm.1.36h.45c.09 0 .16.07.16.16v.3c0 .1-.07.17-.16.17H.5A.16.16 0 0 1 .35.82v-.3c0-.1.07-.16.16-.16zm1.05 0h.52c.09 0 .16.07.16.16v.3c0 .1-.07.17-.16.17h-.52A.16.16 0 0 1 1.4.82v-.3c0-.1.07-.16.16-.16zm1.12 0h.4a15.65 15.65 0 0 1 .25.63h-.65a.16.16 0 0 1-.16-.17v-.3c0-.1.07-.16.16-.16zM.77 1.69c.15 0 .28.12.28.28l-.01.07a.28.28 0 0 1-.55-.07c0-.16.13-.28.28-.28zm1.96 0c.15 0 .28.12.28.28L3 2.04a.28.28 0 0 1-.55-.07c0-.16.13-.28.28-.28z"/></svg>